<svg width="21" height="21" viewBox="0 0 21 21" fill="none" xmlns="http://www.w3.org/2000/svg">
<path d="M2.83593 10.0334C1.97705 8.49789 1.56235 7.24412 1.31229 5.9732C0.942456 4.09357 1.7888 2.25745 3.19085 1.08587C3.78342 0.590707 4.4627 0.759887 4.8131 1.40439L5.60417 2.85944C6.2312 4.01275 6.54471 4.58939 6.48253 5.20076C6.42035 5.81212 5.99754 6.31005 5.1519 7.30591L2.83593 10.0334ZM2.83593 10.0334C4.57439 13.1412 7.30256 15.9398 10.3373 17.7242M10.3373 17.7242C11.835 18.6047 13.0579 19.03 14.2975 19.2863C16.1308 19.6655 17.9217 18.7978 19.0644 17.3603C19.5474 16.7528 19.3824 16.0564 18.7538 15.6971L17.3346 14.886C16.2096 14.2432 15.6472 13.9218 15.0509 13.9855C14.4546 14.0492 13.9689 14.4827 12.9976 15.3497L10.3373 17.7242Z" stroke="#6E6E72" stroke-width="1.40972" stroke-linejoin="round"/>
<path d="M11.4669 8.25121H18.557M11.4669 8.25121C11.4669 8.92989 13.2344 10.1979 13.6825 10.6743M11.4669 8.25121C11.4669 7.57252 13.2344 6.30454 13.6825 5.82813" stroke="#6E6E72" stroke-width="1.40972" stroke-linecap="round" stroke-linejoin="round"/>
</svg>
