<svg width="21" height="20" viewBox="0 0 21 20" fill="none" xmlns="http://www.w3.org/2000/svg">
<path d="M19.3448 9.64751V4.55207C19.3448 3.80377 19.3448 3.42963 19.169 3.04378C19.0687 2.82372 18.8402 2.52438 18.6572 2.37316C18.3363 2.108 18.0685 2.04395 17.5329 1.91585C16.6997 1.71656 15.7807 1.60611 14.815 1.60611C13.0782 1.60611 11.4923 1.96337 10.2851 2.55216C9.07794 3.14094 7.49211 3.4982 5.7553 3.4982C4.78961 3.4982 3.87061 3.38775 3.0374 3.18847C2.1677 2.98046 1.22546 3.62038 1.22546 4.55207V14.7429C1.22546 15.4912 1.22546 15.8654 1.40133 16.2512C1.50163 16.4713 1.73005 16.7707 1.91308 16.9219C2.23398 17.187 2.50179 17.2511 3.0374 17.3792C3.87061 17.5785 4.78961 17.6889 5.7553 17.6889C7.08603 17.6889 8.3281 17.4792 9.37918 17.1163" stroke="#6E6E72" stroke-width="1.40972" stroke-linecap="round"/>
<path d="M12.097 16.7428C12.097 16.7428 13.003 16.7428 13.909 18.6349C13.909 18.6349 16.7868 13.9047 19.3448 12.9586" stroke="#6E6E72" stroke-width="1.40972" stroke-linecap="round" stroke-linejoin="round"/>
<path d="M12.55 9.64751C12.55 10.9537 11.536 12.0126 10.2851 12.0126C9.03425 12.0126 8.0202 10.9537 8.0202 9.64751C8.0202 8.34131 9.03425 7.28239 10.2851 7.28239C11.536 7.28239 12.55 8.34131 12.55 9.64751Z" stroke="#6E6E72" stroke-width="1.40972"/>
<path d="M4.39636 10.5936V10.6042" stroke="#6E6E72" stroke-width="1.87963" stroke-linecap="round" stroke-linejoin="round"/>
<path d="M16.1739 8.69406V8.70474" stroke="#6E6E72" stroke-width="1.87963" stroke-linecap="round" stroke-linejoin="round"/>
</svg>
