<svg width="20" height="21" viewBox="0 0 20 21" fill="none" xmlns="http://www.w3.org/2000/svg">
<path d="M17.174 7.82534C16.4849 4.28442 13.2855 1.60611 9.44349 1.60611C5.09863 1.60611 1.57556 5.03132 1.57556 9.25577C1.57556 11.2855 2.38858 13.1298 3.71475 14.4984C4.00674 14.7998 4.20168 15.2115 4.12301 15.6352C3.99316 16.328 3.6989 16.9743 3.26803 17.5129C4.40167 17.7272 5.58043 17.5342 6.59133 16.9878C6.94869 16.7947 7.12736 16.6981 7.25344 16.6785C7.3417 16.6648 7.45667 16.6776 7.64161 16.7101" stroke="#6E6E72" stroke-width="1.40972" stroke-linecap="round" stroke-linejoin="round"/>
<path d="M9.37476 14.277C9.37476 16.8586 11.509 18.9518 14.1409 18.9518C14.4504 18.9522 14.759 18.9228 15.063 18.8644C15.2818 18.8222 15.3912 18.8011 15.4676 18.8131C15.5439 18.825 15.6522 18.8841 15.8687 19.0021C16.481 19.336 17.1951 19.4539 17.8819 19.3229C17.6209 18.9938 17.4426 18.5989 17.3639 18.1755C17.3163 17.9166 17.4344 17.6649 17.6112 17.4808C18.4146 16.6444 18.9071 15.5174 18.9071 14.277C18.9071 11.6954 16.7729 9.60216 14.1409 9.60216C11.509 9.60216 9.37476 11.6954 9.37476 14.277Z" stroke="#6E6E72" stroke-width="1.40972" stroke-linejoin="round"/>
</svg>
