<svg width="21" height="21" viewBox="0 0 21 21" fill="none" xmlns="http://www.w3.org/2000/svg">
<path d="M12.25 6.99072H8.75C6.57825 6.99072 6.125 7.44397 6.125 9.61572V19.2407H14.875V9.61572C14.875 7.44397 14.4218 6.99072 12.25 6.99072Z" stroke="#3C3C3F" stroke-width="1.2" stroke-linejoin="round"/>
<path d="M9.625 10.4907H11.375M9.625 13.1157H11.375M9.625 15.7407H11.375" stroke="#3C3C3F" stroke-width="1.2" stroke-linecap="round" stroke-linejoin="round"/>
<path d="M18.375 19.2407V7.15316C18.375 6.07841 18.375 5.54103 18.1136 5.10918C17.8523 4.67733 17.3816 4.43701 16.4403 3.95636L12.6413 2.01667C11.6259 1.49821 11.375 1.68093 11.375 2.81586V6.73129" stroke="#3C3C3F" stroke-width="1.2" stroke-linecap="round" stroke-linejoin="round"/>
<path d="M2.625 19.2407V11.3657C2.625 10.6418 2.77609 10.4907 3.5 10.4907H6.125" stroke="#3C3C3F" stroke-width="1.2" stroke-linecap="round" stroke-linejoin="round"/>
<path d="M19.25 19.2407H1.75" stroke="#3C3C3F" stroke-width="1.2" stroke-linecap="round" stroke-linejoin="round"/>
</svg>
