<svg width="21" height="21" viewBox="0 0 21 21" fill="none" xmlns="http://www.w3.org/2000/svg">
<path d="M5.69375 15.4547C4.54981 16.0657 1.55046 17.3135 3.37727 18.8748C4.26964 19.6375 5.26352 20.1829 6.51307 20.1829H13.6432C14.8928 20.1829 15.8867 19.6375 16.7791 18.8748C18.6059 17.3135 15.6065 16.0657 14.4626 15.4547C11.78 14.0218 8.37628 14.0218 5.69375 15.4547Z" stroke="#3C3C3F" stroke-width="1.40972" stroke-linecap="round" stroke-linejoin="round"/>
<path fill-rule="evenodd" clip-rule="evenodd" d="M6.25707 4.86957C5.67389 5.67678 5.33038 6.67383 5.33038 7.74804C5.33038 10.4098 7.43954 12.5979 10.0781 12.5979C12.7166 12.5979 14.8258 10.4098 14.8258 7.74804C14.8258 7.17927 14.7295 6.63213 14.5523 6.12335H13.0217C13.273 6.60573 13.4161 7.15828 13.4161 7.74804C13.4161 9.66462 11.9051 11.1881 10.0781 11.1881C8.25104 11.1881 6.74011 9.66463 6.74011 7.74804C6.74011 7.11497 6.90496 6.52479 7.1916 6.01823C6.70846 5.82743 6.34722 5.39481 6.25707 4.86957Z" fill="#3C3C3F"/>
<path fill-rule="evenodd" clip-rule="evenodd" d="M11.9246 2.69903C10.975 2.29899 9.90969 2.27118 8.94057 2.62114L5.47895 3.87117C5.16677 3.9839 4.95874 4.28021 4.95874 4.61212C4.95874 5.0472 5.31144 5.39991 5.74652 5.39991H14.2645C14.7187 5.39991 15.087 5.03164 15.087 4.57736C15.087 4.24648 14.8887 3.94781 14.5838 3.81935L11.9246 2.69903ZM8.44914 1.26026C9.7603 0.786782 11.2017 0.824404 12.4863 1.36563L15.1456 2.48595C15.9869 2.84039 16.5339 3.66444 16.5339 4.57736C16.5339 5.83074 15.5178 6.8468 14.2645 6.8468H5.74652C4.51234 6.8468 3.51184 5.8463 3.51184 4.61212C3.51184 3.6706 4.10197 2.83007 4.98752 2.51028L8.44914 1.26026Z" fill="#3C3C3F"/>
</svg>
