<svg width="21" height="21" viewBox="0 0 21 21" fill="none" xmlns="http://www.w3.org/2000/svg">
<path d="M14.9677 9.31094C14.9677 8.96967 14.9677 8.79909 15.0169 8.64706C15.1598 8.20524 15.5366 8.03378 15.9141 7.85424C16.3385 7.6524 16.5506 7.55148 16.7609 7.53372C16.9996 7.51356 17.2387 7.56726 17.4427 7.68682C17.7131 7.84531 17.9017 8.14649 18.0949 8.3914C18.9867 9.52249 19.4326 10.0881 19.5957 10.7118C19.7274 11.2151 19.7274 11.7415 19.5957 12.2447C19.3578 13.1544 18.6059 13.917 18.0494 14.6229C17.7647 14.9839 17.6224 15.1644 17.4427 15.2698C17.2387 15.3893 16.9996 15.443 16.7609 15.4229C16.5506 15.4051 16.3385 15.3042 15.9141 15.1023C15.5366 14.9228 15.1598 14.7514 15.0169 14.3095C14.9677 14.1575 14.9677 13.9869 14.9677 13.6456V9.31094Z" stroke="#6E6E72" stroke-width="1.40972"/>
<path d="M5.51421 9.31104C5.51421 8.88142 5.50266 8.49524 5.17002 8.19316C5.04903 8.08328 4.88862 8.00699 4.56782 7.85441C4.14345 7.65256 3.93126 7.55164 3.72102 7.53388C3.09022 7.48061 2.75085 7.93018 2.38709 8.39156C1.49525 9.52269 1.04934 10.0882 0.886167 10.7119C0.754497 11.2153 0.754497 11.7417 0.886167 12.2449C1.12415 13.1546 1.87601 13.9171 2.43254 14.6231C2.78334 15.068 3.11845 15.4739 3.72102 15.4231C3.93126 15.4053 4.14345 15.3043 4.56782 15.1025C4.88862 14.9499 5.04903 14.8736 5.17002 14.7637C5.50266 14.4616 5.51421 14.0756 5.51421 13.6458V9.31104Z" stroke="#6E6E72" stroke-width="1.40972"/>
<path d="M3.62384 7.52932C3.62384 4.2581 6.58661 1.60625 10.2414 1.60625C13.8961 1.60625 16.8589 4.2581 16.8589 7.52932" stroke="#6E6E72" stroke-width="1.40972" stroke-linecap="square" stroke-linejoin="round"/>
<path d="M16.8586 15.4268V16.2165C16.8586 17.9612 15.1656 19.3755 13.0772 19.3755H11.1865" stroke="#6E6E72" stroke-width="1.40972" stroke-linecap="round" stroke-linejoin="round"/>
</svg>
