<svg width="16" height="16" viewBox="0 0 16 16" fill="none" xmlns="http://www.w3.org/2000/svg">
<path d="M0.398926 12.5515V15.8011H3.64853L13.2329 6.21664L9.98334 2.96704L0.398926 12.5515ZM15.7456 3.70298C15.8263 3.62302 15.8903 3.52788 15.9339 3.42305C15.9776 3.31823 16.0001 3.2058 16.0001 3.09225C16.0001 2.97869 15.9776 2.86626 15.9339 2.76144C15.8903 2.65662 15.8263 2.56148 15.7456 2.48151L13.7185 0.453379C13.6385 0.372755 13.5434 0.308762 13.4385 0.265091C13.3337 0.22142 13.2213 0.198936 13.1077 0.198936C12.9942 0.198936 12.8818 0.22142 12.7769 0.265091C12.6721 0.308762 12.577 0.372755 12.497 0.453379L10.9123 2.03995L14.1619 5.28955L15.7456 3.70298Z" fill="#A4A6A9"/>
</svg>
