<svg width="21" height="21" viewBox="0 0 21 21" fill="none" xmlns="http://www.w3.org/2000/svg">
<path d="M7.59414 3.40879L1.83719 8.44341C1.73178 8.54043 1.65914 8.66776 1.62933 8.80779C1.59951 8.94781 1.61399 9.09363 1.67075 9.22509C1.72752 9.35655 1.82377 9.46716 1.94621 9.54164C2.06865 9.61612 2.21123 9.65078 2.35426 9.64085C2.54561 9.63362 2.73206 9.7022 2.87299 9.83164C3.01391 9.96107 3.0979 10.1409 3.10663 10.3319V13.5333C3.10663 16.2875 3.10663 17.6656 4.03498 18.5215C4.96332 19.3774 6.4562 19.3754 9.44293 19.3754H11.5547C14.5414 19.3754 16.0353 19.3754 16.9626 18.5195C17.89 17.6637 17.891 16.2865 17.891 13.5313V10.3299C17.8995 10.1388 17.9834 9.95886 18.1244 9.82936C18.2653 9.69987 18.4519 9.63139 18.6434 9.63888C18.7864 9.64881 18.929 9.61414 19.0514 9.53966C19.1739 9.46519 19.2701 9.35457 19.3269 9.22312C19.3836 9.09166 19.3981 8.94584 19.3683 8.80581C19.3385 8.66579 19.2658 8.53846 19.1604 8.44143L13.4035 3.40682C12.0283 2.20739 11.3402 1.6062 10.4988 1.6062C9.65746 1.6062 8.96936 2.20739 7.59414 3.40879Z" stroke="#6E6E72" stroke-width="1.40972" stroke-linecap="round" stroke-linejoin="round"/>
<path d="M10.4987 14.4395H10.5097" stroke="#6E6E72" stroke-width="1.87963" stroke-linecap="round" stroke-linejoin="round"/>
</svg>
