<svg width="22" height="21" viewBox="0 0 22 21" fill="none" xmlns="http://www.w3.org/2000/svg">
<path d="M15.0435 16.706L14.6614 17.1676L15.1157 17.5629L15.4971 17.0935L15.0435 16.706ZM18.7831 15.4953C18.7831 17.3898 17.285 18.9257 15.4372 18.9257V20.1364C17.9372 20.1364 19.964 18.0585 19.964 15.4953H18.7831ZM15.4372 18.9257C13.5893 18.9257 12.0912 17.3898 12.0912 15.4953H10.9103C10.9103 18.0585 12.9371 20.1364 15.4372 20.1364V18.9257ZM12.0912 15.4953C12.0912 13.6007 13.5893 12.0649 15.4372 12.0649V10.8542C12.9371 10.8542 10.9103 12.9321 10.9103 15.4953H12.0912ZM15.4372 12.0649C17.285 12.0649 18.7831 13.6007 18.7831 15.4953H19.964C19.964 12.9321 17.9372 10.8542 15.4372 10.8542V12.0649ZM13.4805 16.1397L14.6614 17.1676L15.4257 16.2445L14.2447 15.2167L13.4805 16.1397ZM15.4971 17.0935L17.4648 14.6721L16.5575 13.8971L14.5899 16.3185L15.4971 17.0935Z" fill="#6E6E72"/>
<path d="M18.7826 9.10219L20.3448 8.16269L17.5534 3.12642L15.4717 4.37838L13.6826 3.30049V0.798401H8.09992V3.30049L6.31069 4.37842L4.22895 3.12642L1.43762 8.16269L3.51885 9.41438L3.51886 11.5671L1.43772 12.8187L4.22905 17.855L6.31073 16.6031L8.09992 17.6809V20.183H10.6549M13.6428 8.60614C13.0493 7.69698 12.0384 7.0984 10.8912 7.0984C9.06383 7.0984 7.58245 8.61719 7.58245 10.4907C7.58245 11.6669 8.16628 12.7033 9.05305 13.3118" stroke="#6E6E72" stroke-width="1.40972" stroke-linejoin="round"/>
</svg>
