<svg width="21" height="21" viewBox="0 0 21 21" fill="none" xmlns="http://www.w3.org/2000/svg">
<path d="M1.22546 10.8946C1.22546 6.51595 1.22546 4.32664 2.55222 2.96637C3.87899 1.60611 6.01437 1.60611 10.2851 1.60611C14.5559 1.60611 16.6913 1.60611 18.0181 2.96637C19.3448 4.32664 19.3448 6.51595 19.3448 10.8946C19.3448 15.2732 19.3448 17.4625 18.0181 18.8228C16.6913 20.183 14.5559 20.183 10.2851 20.183C6.01437 20.183 3.87899 20.183 2.55222 18.8228C1.22546 17.4625 1.22546 15.2732 1.22546 10.8946Z" stroke="#6E6E72" stroke-width="1.40972"/>
<path d="M1.22546 7.96136H19.3448" stroke="#6E6E72" stroke-width="1.40972" stroke-linejoin="round"/>
<path d="M5.51685 5.02816H5.52807" stroke="#6E6E72" stroke-width="1.87963" stroke-linecap="round" stroke-linejoin="round"/>
<path d="M9.33148 5.02816H9.34273" stroke="#6E6E72" stroke-width="1.87963" stroke-linecap="round" stroke-linejoin="round"/>
<path d="M15.0534 15.7832C15.0534 13.0833 12.9185 10.8946 10.2851 10.8946C7.65167 10.8946 5.51685 13.0833 5.51685 15.7832" stroke="#6E6E72" stroke-width="1.40972" stroke-linecap="round"/>
<path d="M10.9595 14.1142L9.61084 15.4969" stroke="#6E6E72" stroke-width="1.40972" stroke-linecap="round" stroke-linejoin="round"/>
</svg>
