<svg width="20" height="21" viewBox="0 0 20 21" fill="none" xmlns="http://www.w3.org/2000/svg">
<path d="M17.2238 10.4907C16.897 9.80042 16.511 9.26715 15.8327 8.86085C15.1741 8.46649 14.239 8.32629 12.3691 8.04589L9.47199 7.58302V2.49455C9.47199 1.55779 8.71231 0.798401 7.77524 0.798401C6.83812 0.798401 6.07844 1.55779 6.07844 2.49455V11.9446L4.00941 10.1718C3.28525 9.55133 2.19085 9.65417 1.59502 10.3986C1.09929 11.0181 1.10263 11.8991 1.60304 12.5148L4.85943 16.5212C5.86531 17.7587 6.36826 18.3774 7.04317 18.7438C7.16419 18.8095 7.28864 18.8687 7.41598 18.9212C8.0365 19.1769 8.72385 19.2091 9.95185 19.2132" stroke="#6E6E72" stroke-width="1.40972" stroke-linecap="round" stroke-linejoin="round"/>
<path d="M12.8606 17.7599C12.8606 16.8541 12.8606 16.4012 13.0555 16.0638C13.1831 15.8428 13.3667 15.6592 13.5878 15.5317C13.9253 15.3369 14.3784 15.3369 15.2846 15.3369H16.2542C17.1604 15.3369 17.6135 15.3369 17.951 15.5317C18.1721 15.6592 18.3557 15.8428 18.4833 16.0638C18.6782 16.4012 18.6782 16.8541 18.6782 17.7599C18.6782 18.6658 18.6782 19.1187 18.4833 19.4561C18.3557 19.6771 18.1721 19.8607 17.951 19.9882C17.6135 20.183 17.1604 20.183 16.2542 20.183H15.2846C14.3784 20.183 13.9253 20.183 13.5878 19.9882C13.3667 19.8607 13.1831 19.6771 13.0555 19.4561C12.8606 19.1187 12.8606 18.6658 12.8606 17.7599Z" stroke="#6E6E72" stroke-width="1.40972"/>
<path d="M14.315 13.883C14.315 13.0801 14.9662 12.4292 15.7694 12.4292C16.5726 12.4292 17.2238 13.0801 17.2238 13.883V15.3369H14.315V13.883Z" stroke="#6E6E72" stroke-width="1.40972"/>
</svg>
