<svg width="21" height="21" viewBox="0 0 21 21" fill="none" xmlns="http://www.w3.org/2000/svg">
<path d="M18.7758 9.17822V8.49353C18.7758 6.79636 18.7758 5.94778 18.2759 5.42054C17.7759 4.8933 16.9713 4.8933 15.362 4.8933H13.588C12.8051 4.8933 12.7986 4.89174 12.0946 4.53052L9.25124 3.07172C8.06405 2.46263 7.47046 2.15809 6.8381 2.17925C6.20574 2.20042 5.63166 2.54404 4.4835 3.23129L3.43558 3.85855C2.59221 4.36335 2.17052 4.61576 1.93868 5.03566C1.70685 5.45556 1.70685 5.96691 1.70685 6.98961V14.1795C1.70685 15.5232 1.70685 16.1951 1.99895 16.5691C2.19332 16.8178 2.4657 16.9851 2.76683 17.0406C3.21938 17.1239 3.77346 16.7923 4.88156 16.129C5.63404 15.6786 6.35823 15.2108 7.25842 15.3377C8.01271 15.4439 8.71366 15.9319 9.38788 16.2778" stroke="#6E6E72" stroke-width="1.40972" stroke-linecap="round" stroke-linejoin="round"/>
<path d="M6.82751 2.17822V15.3032" stroke="#6E6E72" stroke-width="1.40972" stroke-linejoin="round"/>
<path d="M12.8016 4.80322V8.30322" stroke="#6E6E72" stroke-width="1.40972" stroke-linecap="round" stroke-linejoin="round"/>
<path d="M14.9352 10.4907C17.0136 10.4907 18.7758 12.2552 18.7758 14.3958C18.7758 16.5704 16.985 18.0966 15.3308 19.1342C15.2103 19.2041 15.0739 19.2407 14.9352 19.2407C14.7966 19.2407 14.6602 19.2041 14.5397 19.1342C12.8886 18.0864 11.0947 16.5779 11.0947 14.3958C11.0947 12.2552 12.8568 10.4907 14.9352 10.4907Z" stroke="#6E6E72" stroke-width="1.40972"/>
<path d="M14.9352 14.4282H14.9442" stroke="#6E6E72" stroke-width="1.87963" stroke-linecap="round" stroke-linejoin="round"/>
</svg>
