<svg width="21" height="21" viewBox="0 0 21 21" fill="none" xmlns="http://www.w3.org/2000/svg">
<path d="M2.01324 10.3535C2.01324 5.91787 2.01324 3.70005 3.3018 2.29484C3.3494 2.24292 3.3981 2.19213 3.44787 2.14247C4.79504 0.798401 6.92126 0.798401 11.1737 0.798401C12.1815 0.798401 12.667 0.802045 13.1291 0.981934C13.574 1.15517 13.9468 1.47918 14.6923 2.12721L16.7328 3.90083C17.7192 4.7583 18.2124 5.18703 18.4757 5.77313C18.7388 6.35924 18.7388 7.02894 18.7388 8.36834V11.4599C18.7388 15.0943 18.7388 16.9115 17.8515 18.1853C17.565 18.5968 17.2181 18.9586 16.8236 19.2575C15.6024 20.183 13.8602 20.183 10.376 20.183C6.89179 20.183 5.14966 20.183 3.92839 19.2575C3.53397 18.9586 3.18711 18.5968 2.90055 18.1853C2.01324 16.9115 2.01324 15.0943 2.01324 11.4599V10.3535Z" stroke="#6E6E72" stroke-width="1.40972"/>
<path d="M5.72998 12.9138C5.72998 14.5129 5.72998 15.3125 6.13821 15.8093C6.54645 16.3061 7.20349 16.3061 8.51757 16.3061H12.2344C13.5484 16.3061 14.2055 16.3061 14.6138 15.8093C15.022 15.3125 15.022 14.5129 15.022 12.9138M5.72998 12.9138C5.72998 11.3147 5.72998 10.515 6.13821 10.0183C6.54645 9.52148 7.20349 9.52148 8.51757 9.52148H12.2344C13.5484 9.52148 14.2055 9.52148 14.6138 10.0183C15.022 10.515 15.022 11.3147 15.022 12.9138M5.72998 12.9138H7.58838M15.022 12.9138H13.1636" stroke="#6E6E72" stroke-width="1.40972" stroke-linecap="round" stroke-linejoin="round"/>
</svg>
