<svg width="17" height="21" viewBox="0 0 17 21" fill="none" xmlns="http://www.w3.org/2000/svg">
<path d="M8.28511 0.798416C4.15176 0.798416 0.801025 4.30495 0.801025 8.63052C0.801025 11.1038 1.73654 13.027 3.60756 14.7447C4.92636 15.9555 7.32584 18.5528 8.28511 20.183C9.29293 18.5852 11.6439 15.9555 12.9627 14.7447C14.8337 13.027 15.7692 11.1038 15.7692 8.63052C15.7692 4.30495 12.4185 0.798416 8.28511 0.798416Z" stroke="#6E6E72" stroke-width="1.40972" stroke-linejoin="round"/>
<path d="M8.28512 4.67534L8.89114 4.30906C8.76541 4.08573 8.53471 3.94841 8.28512 3.94841C8.03552 3.94841 7.80483 4.08573 7.6791 4.30906L8.28512 4.67534ZM9.59483 7.0015L8.98881 7.36778L9.13737 7.63165L9.42326 7.70636L9.59483 7.0015ZM12.0272 7.63706L12.5421 8.1309C12.7103 7.94259 12.7702 7.6763 12.6998 7.43028C12.6293 7.18426 12.4389 6.99496 12.1987 6.9322L12.0272 7.63706ZM10.3432 9.52151L9.82834 9.02769L9.57799 9.30789L9.65854 9.68047L10.3432 9.52151ZM10.972 12.4292L10.7015 13.0999C10.9436 13.2047 11.2218 13.1609 11.4228 12.9862C11.6239 12.8117 11.714 12.5354 11.6567 12.2703L10.972 12.4292ZM8.28512 11.2661L8.55557 10.5954L8.28512 10.4783L8.01466 10.5954L8.28512 11.2661ZM5.5982 12.4292L4.91355 12.2703C4.8562 12.5354 4.94641 12.8117 5.14743 12.9862C5.34844 13.1609 5.62666 13.2047 5.8687 13.0999L5.5982 12.4292ZM6.227 9.52151L6.9117 9.68047L6.99224 9.30789L6.7419 9.02769L6.227 9.52151ZM4.54308 7.63706L4.3715 6.9322C4.13132 6.99496 3.94088 7.18426 3.87043 7.43028C3.79997 7.6763 3.85994 7.94259 4.02821 8.1309L4.54308 7.63706ZM6.9754 7.0015L7.14698 7.70636L7.43287 7.63165L7.58143 7.36778L6.9754 7.0015ZM7.6791 5.04161L8.98881 7.36778L10.2009 6.63523L8.89114 4.30906L7.6791 5.04161ZM9.42326 7.70636L11.8556 8.34192L12.1987 6.9322L9.76641 6.29664L9.42326 7.70636ZM11.5123 7.14321L9.82834 9.02769L10.8581 10.0153L12.5421 8.1309L11.5123 7.14321ZM9.65854 9.68047L10.2874 12.5882L11.6567 12.2703L11.0279 9.36256L9.65854 9.68047ZM11.2425 11.7585L8.55557 10.5954L8.01466 11.9368L10.7015 13.0999L11.2425 11.7585ZM8.01466 10.5954L5.32772 11.7585L5.8687 13.0999L8.55557 11.9368L8.01466 10.5954ZM6.28287 12.5882L6.9117 9.68047L5.54233 9.36256L4.91355 12.2703L6.28287 12.5882ZM6.7419 9.02769L5.05794 7.14321L4.02821 8.1309L5.71213 10.0153L6.7419 9.02769ZM4.71466 8.34192L7.14698 7.70636L6.80383 6.29664L4.3715 6.9322L4.71466 8.34192ZM7.58143 7.36778L8.89114 5.04161L7.6791 4.30906L6.36935 6.63523L7.58143 7.36778Z" fill="#6E6E72"/>
</svg>
